<?xml version="1.0" encoding="UTF-8"?>
<svg width="162px" height="195px" viewBox="0 0 162 195" version="1.1" xmlns="http://www.w3.org/2000/svg" xmlns:xlink="http://www.w3.org/1999/xlink">
    <!-- Generator: Sketch 52.5 (67469) - http://www.bohemiancoding.com/sketch -->
    <title>christmas-cap</title>
    <desc>Created with Sketch.</desc>
    <g id="Page-1" stroke="none" stroke-width="1" fill="none" fill-rule="evenodd">
        <g id="Artboard" transform="translate(-107.000000, -221.000000)">
            <g id="christmas-cap" transform="translate(112.000000, 227.000000)">
                <g id="cap">
                    <path d="M109,103.295309 L109,153 L13.3937931,153 L13.0294586,150.419385 C13.0174095,150.33404 12.9964961,150.178598 12.9679979,149.955396 C12.9215385,149.591518 12.870057,149.164576 12.8148337,148.676904 C12.6581556,147.293294 12.5019015,145.694945 12.3563268,143.900514 C10.7364664,123.93324 11.7104582,101.698679 17.2158511,80.622976 C18.8454316,74.3846286 20.8452026,68.4370519 23.2406663,62.8226839 C31.056928,44.5033205 41.7582596,27.95207 53.2744623,15.3538583 C63.6451547,4.00878358 73.6858976,-2.99999997 80,-3 C86.9136702,-3.00000003 100.086575,9.07516315 112.214109,26.5388126 C126.942276,47.7473728 138.448165,74.0278688 143.94534,102.429934 L144.19021,103.6951 L137.112879,113.603365 L109,103.295309 Z" id="Path-8" stroke="#282828" stroke-width="6" fill="#EC4B5F" stroke-linejoin="round"></path>
                    <path d="M43,150 L16,150 C16,150 12.5550747,100.542796 29.0000009,62 C33.2546411,52.0281869 38.0521448,43.0661478 43,35.2588606 L43,150 Z" id="Path-8-Copy" fill="#FF5B6F"></path>
                    <circle id="Oval-5" stroke="#242424" stroke-width="6" fill="#FFFFFF" cx="136" cy="108" r="18"></circle>
                    <path d="M144,95.3091218 C148.206336,97.9662572 151,102.656881 151,108 C151,113.343119 148.206336,118.033743 144,120.690878 L144,95.3091218 Z" id="Oval-5-Copy" fill="#E7E7E7"></path>
                    <path d="M93,68.0066703 C93,63.5847084 96.5907123,60 101,60 L109,60 L109,150 L93,150 L93,68.0066703 Z" id="Rectangle-7" fill="#CC3D4D"></path>
                    <rect id="Rectangle-5" fill="#242424" x="106" y="60" width="6" height="96" rx="3"></rect>
                    <ellipse id="Oval-1-Copy-2" fill="#ACFFCA" cx="23.5" cy="7.48679481" rx="7.5" ry="7.48679481"></ellipse>
                    <ellipse id="Oval-1-Copy-4" fill="#FFFBC4" cx="140.5" cy="35.4867948" rx="7.5" ry="7.48679481"></ellipse>
                    <ellipse id="Oval-1-Copy-5" fill="#C4D5FF" cx="7.5" cy="52.4867948" rx="7.5" ry="7.48679481"></ellipse>
                </g>
                <g id="base" transform="translate(1.000000, 132.000000)">
                    <path d="M-3,5.00532213 C-3,0.583648345 0.580947155,-3 5.00347316,-3 L114.996527,-3 C119.418153,-3 123,0.580859353 123,5.00532213 L123,34.9946779 C123,39.4151247 119.424552,43 115.005855,43 L4.99155354,43 C0.574911125,43 -3,39.4175405 -3,34.9946779 L-3,5.00532213 Z" id="Rectangle-8" stroke="#212121" stroke-width="6" fill="#FFFFFF"></path>
                    <rect id="Rectangle-3-Copy" fill="#282828" x="39" y="52" width="37.5" height="5" rx="2.5"></rect>
                    <path d="M39,0 L114.994215,0 C117.758834,0 120,2.23628439 120,5.00532213 L120,34.9946779 C120,37.759041 117.761705,40 114.990707,40 L57.61564,40 L39,40 L39,0 Z" id="Rectangle-8-Copy" fill="#EAEAEA"></path>
                    <g id="Group" transform="translate(14.000000, 26.000000)" fill="#1E1E1E">
                        <path d="M0,3.50662049 C0,1.56996747 1.57093664,0 3.5,0 L3.5,0 C5.43299662,0 7,1.56936646 7,3.50662049 L7,20 L0,20 L0,3.50662049 Z" id="Rectangle-9-Copy-4"></path>
                        <path d="M17,3.50662049 C17,1.56996747 18.5709366,0 20.5,0 L20.5,0 C22.4329966,0 24,1.56936646 24,3.50662049 L24,20 L17,20 L17,3.50662049 Z" id="Rectangle-9-Copy-5"></path>
                        <path d="M34,3.50662049 C34,1.56996747 35.5709366,0 37.5,0 L37.5,0 C39.4329966,0 41,1.56936646 41,3.50662049 L41,20 L34,20 L34,3.50662049 Z" id="Rectangle-9-Copy-6"></path>
                        <path d="M51,3.50662049 C51,1.56996747 52.5709366,0 54.5,0 L54.5,0 C56.4329966,0 58,1.56936646 58,3.50662049 L58,20 L51,20 L51,3.50662049 Z" id="Rectangle-9-Copy-7"></path>
                        <path d="M68,3.50662049 C68,1.56996747 69.5709366,0 71.5,0 L71.5,0 C73.4329966,0 75,1.56936646 75,3.50662049 L75,20 L68,20 L68,3.50662049 Z" id="Rectangle-9-Copy-8"></path>
                        <path d="M85,3.50662049 C85,1.56996747 86.5709366,0 88.5,0 L88.5,0 C90.4329966,0 92,1.56936646 92,3.50662049 L92,20 L85,20 L85,3.50662049 Z" id="Rectangle-9-Copy-9"></path>
                    </g>
                </g>
            </g>
        </g>
    </g>
</svg>