<?xml version="1.0" encoding="UTF-8"?>
<svg width="200px" height="200px" viewBox="0 0 200 200" version="1.1" xmlns="http://www.w3.org/2000/svg" xmlns:xlink="http://www.w3.org/1999/xlink">
    <!-- Generator: Sketch 52.5 (67469) - http://www.bohemiancoding.com/sketch -->
    <title>Artboardsvg</title>
    <desc>Created with Sketch.</desc>
    <g id="Artboard" stroke="none" stroke-width="1" fill="none" fill-rule="evenodd">
        <g id="christmas-cap" transform="translate(25.000000, 11.000000)">
            <g id="cap" transform="translate(13.000000, 0.000000)">
                <path d="M95,103.295309 L95,153 L-0.606206948,153 L-0.970541437,150.419385 C-0.982590543,150.33404 -1.00350389,150.178598 -1.03200205,149.955396 C-1.0784615,149.591518 -1.129943,149.164576 -1.18516629,148.676904 C-1.34184437,147.293294 -1.49809855,145.694945 -1.64367317,143.900514 C-3.26353363,123.93324 -2.2895418,101.698679 3.21585113,80.622976 C4.84543164,74.3846286 6.84520262,68.4370519 9.24066628,62.8226839 C17.056928,44.5033205 27.7582596,27.95207 39.2744623,15.3538583 C49.6451547,4.00878358 59.6858976,-2.99999997 66,-3 C72.9136702,-3.00000003 86.0865751,9.07516315 98.2141092,26.5388126 C112.942276,47.7473728 124.448165,74.0278688 129.94534,102.429934 L130.19021,103.6951 L123.112879,113.603365 L95,103.295309 Z" id="Path-8" stroke="#282828" stroke-width="6" fill="#EC4B5F" stroke-linejoin="round"></path>
                <path d="M29,150 L2,150 C2,150 -1.44492534,100.542796 15.0000009,62 C19.2546411,52.0281869 24.0521448,43.0661478 29,35.2588606 L29,150 Z" id="Path-8-Copy" fill="#FF5B6F"></path>
                <circle id="Oval-5" stroke="#242424" stroke-width="6" fill="#FFFFFF" cx="122" cy="108" r="18"></circle>
                <path d="M130,95.3091218 C134.206336,97.9662572 137,102.656881 137,108 C137,113.343119 134.206336,118.033743 130,120.690878 L130,95.3091218 Z" id="Oval-5-Copy" fill="#E7E7E7"></path>
                <path d="M79,68.0066703 C79,63.5847084 82.5907123,60 87,60 L95,60 L95,150 L79,150 L79,68.0066703 Z" id="Rectangle-7" fill="#CC3D4D"></path>
                <rect id="Rectangle-5" fill="#242424" x="92" y="60" width="6" height="96" rx="3"></rect>
            </g>
            <g id="base" transform="translate(0.000000, 132.000000)">
                <path d="M-3,5.00532213 C-3,0.583648345 0.580947155,-3 5.00347316,-3 L114.996527,-3 C119.418153,-3 123,0.580859353 123,5.00532213 L123,34.9946779 C123,39.4151247 119.424552,43 115.005855,43 L4.99155354,43 C0.574911125,43 -3,39.4175405 -3,34.9946779 L-3,5.00532213 Z" id="Rectangle-8" stroke="#212121" stroke-width="6" fill="#FFFFFF"></path>
                <path d="M39,0 L114.994215,0 C117.758834,0 120,2.23628439 120,5.00532213 L120,34.9946779 C120,37.759041 117.761705,40 114.990707,40 L57.61564,40 L39,40 L39,0 Z" id="Rectangle-8-Copy" fill="#EAEAEA"></path>
                <g id="Group" transform="translate(14.000000, 26.000000)" fill="#1E1E1E">
                    <path d="M0,3.50662049 C0,1.56996747 1.57093664,0 3.5,0 L3.5,0 C5.43299662,0 7,1.56936646 7,3.50662049 L7,20 L0,20 L0,3.50662049 Z" id="Rectangle-9-Copy-4"></path>
                    <path d="M17,3.50662049 C17,1.56996747 18.5709366,0 20.5,0 L20.5,0 C22.4329966,0 24,1.56936646 24,3.50662049 L24,20 L17,20 L17,3.50662049 Z" id="Rectangle-9-Copy-5"></path>
                    <path d="M34,3.50662049 C34,1.56996747 35.5709366,0 37.5,0 L37.5,0 C39.4329966,0 41,1.56936646 41,3.50662049 L41,20 L34,20 L34,3.50662049 Z" id="Rectangle-9-Copy-6"></path>
                    <path d="M51,3.50662049 C51,1.56996747 52.5709366,0 54.5,0 L54.5,0 C56.4329966,0 58,1.56936646 58,3.50662049 L58,20 L51,20 L51,3.50662049 Z" id="Rectangle-9-Copy-7"></path>
                    <path d="M68,3.50662049 C68,1.56996747 69.5709366,0 71.5,0 L71.5,0 C73.4329966,0 75,1.56936646 75,3.50662049 L75,20 L68,20 L68,3.50662049 Z" id="Rectangle-9-Copy-8"></path>
                    <path d="M85,3.50662049 C85,1.56996747 86.5709366,0 88.5,0 L88.5,0 C90.4329966,0 92,1.56936646 92,3.50662049 L92,20 L85,20 L85,3.50662049 Z" id="Rectangle-9-Copy-9"></path>
                </g>
            </g>
        </g>
    </g>
</svg>